# xmcd
#
# Track frame offsets:
# 150
# 13115
# 26672
# 41857
# 56548
# 72766
# 87294
# 101553
# 118973
# 133104
# 147950
# 161942
# 177191
#
# Disc length: 2582 seconds
#
# Revision: 0
# Processed by: cddbd v1.5.2PL0 Copyright (c) Steve Scherf et al.
# Submitted via: Axialis_AX_CDPlayer 2.6
#
DISCID=bc0a140d
DTITLE=RODRIGO E ALEXANDRE - RODRIGO E ALEXANDRE
DYEAR=1900
DGENRE=
TTITLE0=OVERDOSE
TTITLE1=AMIZADE QUE VIROU PAIXAO
TTITLE2=SO DEPENDE DE NOS
TTITLE3=DOIS CORACOES
TTITLE4=VOLTA AI PRO MEU AMIGO
TTITLE5=TO BEM MELHOR ASSIM
TTITLE6=AMANHECEU
TTITLE7=TA NA CARA
TTITLE8=ALQUIMIA
TTITLE9=FOI BURRICE
TTITLE10=SO ENXERGO VOCE
TTITLE11=SAUDADE PRA QUE
TTITLE12=BOTAO VIROU ROSA
EXTD=
EXTT0=
EXTT1=
EXTT2=
EXTT3=
EXTT4=
EXTT5=
EXTT6=
EXTT7=
EXTT8=
EXTT9=
EXTT10=
EXTT11=
EXTT12=
PLAYORDER=
